<mxfile host="65bd71144e" scale="2" border="0">
    <diagram id="midufKdYwpCdUBDcSUrH" name="第 1 页">
        <mxGraphModel dx="913" dy="454" grid="1" gridSize="10" guides="1" tooltips="1" connect="1" arrows="1" fold="1" page="1" pageScale="1" pageWidth="827" pageHeight="1169" background="#FFFFFF" math="0" shadow="0">
            <root>
                <mxCell id="0"/>
                <mxCell id="1" parent="0"/>
                <mxCell id="34" value="" style="rounded=0;whiteSpace=wrap;html=1;labelBackgroundColor=none;fontFamily=宋体;fontSize=14;fontColor=default;labelBorderColor=none;dashed=1;" vertex="1" parent="1">
                    <mxGeometry x="20" y="360" width="760" height="500" as="geometry"/>
                </mxCell>
                <mxCell id="2" value="持久化数据缓存&lt;br&gt;&lt;font style=&quot;font-size: 13px;&quot;&gt;(基于zustand/persist)&lt;/font&gt;" style="shape=cylinder3;whiteSpace=wrap;html=1;boundedLbl=1;backgroundOutline=1;size=15;fontSize=16;fontFamily=宋体;spacing=0;" vertex="1" parent="1">
                    <mxGeometry x="170" y="520" width="160" height="80" as="geometry"/>
                </mxCell>
                <mxCell id="4" value="&lt;font style=&quot;font-size: 16px;&quot; face=&quot;宋体&quot;&gt;视图层&lt;/font&gt;" style="rounded=1;whiteSpace=wrap;html=1;align=left;spacingLeft=15;fontSize=16;" vertex="1" parent="1">
                    <mxGeometry x="40" y="400" width="640" height="80" as="geometry"/>
                </mxCell>
                <mxCell id="5" value="数据层&lt;br style=&quot;font-size: 16px;&quot;&gt;&lt;span style=&quot;text-align: center; font-size: 16px;&quot;&gt;(store)&lt;/span&gt;" style="rounded=1;whiteSpace=wrap;html=1;fontFamily=宋体;fontSize=16;align=left;spacingLeft=15;" vertex="1" parent="1">
                    <mxGeometry x="40" y="640" width="360" height="80" as="geometry"/>
                </mxCell>
                <mxCell id="6" value="API&lt;br&gt;(api)" style="rounded=1;whiteSpace=wrap;html=1;fontFamily=宋体;fontSize=16;align=left;spacingLeft=15;" vertex="1" parent="1">
                    <mxGeometry x="140" y="760" width="360" height="80" as="geometry"/>
                </mxCell>
                <mxCell id="21" style="edgeStyle=orthogonalEdgeStyle;html=1;entryX=1;entryY=0.5;entryDx=0;entryDy=0;entryPerimeter=0;fontFamily=宋体;fontSize=16;fontColor=default;exitX=0.5;exitY=0;exitDx=0;exitDy=0;exitPerimeter=0;startArrow=block;startFill=1;endArrow=block;endFill=1;" edge="1" parent="1" source="7" target="2">
                    <mxGeometry relative="1" as="geometry"/>
                </mxCell>
                <mxCell id="33" style="html=1;exitX=0.5;exitY=1;exitDx=0;exitDy=0;exitPerimeter=0;entryX=0;entryY=0;entryDx=0;entryDy=0;entryPerimeter=0;fontFamily=宋体;fontSize=16;fontColor=default;startArrow=none;startFill=0;endArrow=none;endFill=0;dashed=1;" edge="1" parent="1" source="7" target="32">
                    <mxGeometry relative="1" as="geometry"/>
                </mxCell>
                <mxCell id="7" value="&lt;font style=&quot;&quot;&gt;&lt;span style=&quot;font-size: 16px;&quot;&gt;MMKV&lt;/span&gt;&lt;br&gt;&lt;font style=&quot;font-size: 15px;&quot;&gt;(高性能KV数据库)&lt;/font&gt;&lt;/font&gt;" style="shape=cylinder3;whiteSpace=wrap;html=1;boundedLbl=1;backgroundOutline=1;size=15;fontFamily=宋体;fontSize=18;" vertex="1" parent="1">
                    <mxGeometry x="440" y="640" width="140" height="80" as="geometry"/>
                </mxCell>
                <mxCell id="8" value="自定义钩子&lt;br&gt;(hooks)" style="rounded=1;whiteSpace=wrap;html=1;fontFamily=宋体;fontSize=16;" vertex="1" parent="1">
                    <mxGeometry x="640" y="610" width="120" height="60" as="geometry"/>
                </mxCell>
                <mxCell id="9" value="常用工具&lt;br&gt;(utils)" style="rounded=1;whiteSpace=wrap;html=1;fontFamily=宋体;fontSize=16;" vertex="1" parent="1">
                    <mxGeometry x="640" y="710" width="120" height="60" as="geometry"/>
                </mxCell>
                <mxCell id="24" style="edgeStyle=orthogonalEdgeStyle;html=1;exitX=0.75;exitY=1;exitDx=0;exitDy=0;entryX=0.5;entryY=0;entryDx=0;entryDy=0;entryPerimeter=0;fontFamily=宋体;fontSize=16;fontColor=default;startArrow=block;startFill=1;endArrow=block;endFill=1;" edge="1" parent="1" source="10" target="2">
                    <mxGeometry relative="1" as="geometry"/>
                </mxCell>
                <mxCell id="25" style="edgeStyle=orthogonalEdgeStyle;html=1;exitX=0.25;exitY=1;exitDx=0;exitDy=0;entryX=0.25;entryY=0;entryDx=0;entryDy=0;fontFamily=宋体;fontSize=16;fontColor=default;startArrow=block;startFill=1;endArrow=block;endFill=1;" edge="1" parent="1" source="10" target="12">
                    <mxGeometry relative="1" as="geometry"/>
                </mxCell>
                <mxCell id="10" value="页面&lt;br&gt;(pages)" style="rounded=0;whiteSpace=wrap;html=1;fontFamily=宋体;fontSize=16;" vertex="1" parent="1">
                    <mxGeometry x="120" y="410" width="120" height="60" as="geometry"/>
                </mxCell>
                <mxCell id="11" value="组件&lt;br&gt;(components)" style="rounded=0;whiteSpace=wrap;html=1;fontFamily=宋体;fontSize=16;" vertex="1" parent="1">
                    <mxGeometry x="260" y="410" width="120" height="60" as="geometry"/>
                </mxCell>
                <mxCell id="23" value="" style="edgeStyle=orthogonalEdgeStyle;html=1;fontFamily=宋体;fontSize=16;fontColor=default;startArrow=block;startFill=1;endArrow=block;endFill=1;" edge="1" parent="1" source="12" target="13">
                    <mxGeometry relative="1" as="geometry"/>
                </mxCell>
                <mxCell id="12" value="状态管理&lt;br&gt;(zustand)" style="rounded=0;whiteSpace=wrap;html=1;fontFamily=宋体;fontSize=16;" vertex="1" parent="1">
                    <mxGeometry x="120" y="650" width="120" height="60" as="geometry"/>
                </mxCell>
                <mxCell id="29" style="edgeStyle=orthogonalEdgeStyle;html=1;entryX=0.5;entryY=0;entryDx=0;entryDy=0;fontFamily=宋体;fontSize=16;fontColor=default;startArrow=block;startFill=1;endArrow=block;endFill=1;" edge="1" parent="1" source="13" target="6">
                    <mxGeometry relative="1" as="geometry"/>
                </mxCell>
                <mxCell id="13" value="业务逻辑" style="rounded=0;whiteSpace=wrap;html=1;fontFamily=宋体;fontSize=16;" vertex="1" parent="1">
                    <mxGeometry x="260" y="650" width="120" height="60" as="geometry"/>
                </mxCell>
                <mxCell id="15" value="路由&lt;br&gt;(router.ts)" style="rounded=0;whiteSpace=wrap;html=1;fontFamily=宋体;fontSize=16;" vertex="1" parent="1">
                    <mxGeometry x="400" y="410" width="120" height="60" as="geometry"/>
                </mxCell>
                <mxCell id="16" value="主题&lt;br&gt;(theme.ts)" style="rounded=0;whiteSpace=wrap;html=1;fontFamily=宋体;fontSize=16;" vertex="1" parent="1">
                    <mxGeometry x="540" y="410" width="120" height="60" as="geometry"/>
                </mxCell>
                <mxCell id="17" value="静态资源&lt;br&gt;(assets)" style="rounded=1;whiteSpace=wrap;html=1;fontFamily=宋体;fontSize=16;" vertex="1" parent="1">
                    <mxGeometry x="640" y="510" width="120" height="60" as="geometry"/>
                </mxCell>
                <mxCell id="22" style="edgeStyle=orthogonalEdgeStyle;html=1;entryX=0.75;entryY=0;entryDx=0;entryDy=0;fontFamily=宋体;fontSize=16;fontColor=default;startArrow=block;startFill=1;endArrow=block;endFill=1;exitX=0.5;exitY=1;exitDx=0;exitDy=0;exitPerimeter=0;" edge="1" parent="1" source="2" target="12">
                    <mxGeometry relative="1" as="geometry">
                        <Array as="points">
                            <mxPoint x="250" y="625"/>
                            <mxPoint x="210" y="625"/>
                        </Array>
                    </mxGeometry>
                </mxCell>
                <mxCell id="20" value="" style="edgeStyle=none;html=1;fontFamily=宋体;fontSize=16;fontColor=default;startArrow=block;startFill=1;endArrow=block;endFill=1;exitX=1;exitY=0.5;exitDx=0;exitDy=0;" edge="1" parent="1" source="13">
                    <mxGeometry relative="1" as="geometry">
                        <mxPoint x="440" y="680" as="targetPoint"/>
                        <Array as="points">
                            <mxPoint x="410" y="680"/>
                            <mxPoint x="430" y="680"/>
                        </Array>
                    </mxGeometry>
                </mxCell>
                <mxCell id="26" value="微博API&lt;br&gt;(weibo.ts)" style="rounded=0;whiteSpace=wrap;html=1;fontFamily=宋体;fontSize=16;" vertex="1" parent="1">
                    <mxGeometry x="220" y="770" width="120" height="60" as="geometry"/>
                </mxCell>
                <mxCell id="27" value="茶舍API&lt;br&gt;(ylcs.ts)" style="rounded=0;whiteSpace=wrap;html=1;fontFamily=宋体;fontSize=16;" vertex="1" parent="1">
                    <mxGeometry x="360" y="770" width="120" height="60" as="geometry"/>
                </mxCell>
                <mxCell id="32" value="如需存储结构化数据可加sqlite" style="shape=note;whiteSpace=wrap;html=1;backgroundOutline=1;darkOpacity=0.05;labelBackgroundColor=none;fontFamily=宋体;fontSize=14;fontColor=default;verticalAlign=middle;spacing=4;spacingRight=30;" vertex="1" parent="1">
                    <mxGeometry x="520" y="790" width="140" height="50" as="geometry"/>
                </mxCell>
                <mxCell id="35" value="React Native" style="text;html=1;strokeColor=none;fillColor=none;align=center;verticalAlign=middle;whiteSpace=wrap;rounded=0;dashed=1;labelBackgroundColor=none;labelBorderColor=none;fontFamily=宋体;fontSize=18;fontColor=default;" vertex="1" parent="1">
                    <mxGeometry x="20" y="360" width="140" height="30" as="geometry"/>
                </mxCell>
                <mxCell id="60" style="edgeStyle=none;html=1;exitX=0.5;exitY=1;exitDx=0;exitDy=0;entryX=0.5;entryY=0;entryDx=0;entryDy=0;fontFamily=宋体;fontSize=16;fontColor=default;startArrow=block;startFill=1;endArrow=block;endFill=1;" edge="1" parent="1" source="36" target="34">
                    <mxGeometry relative="1" as="geometry">
                        <Array as="points">
                            <mxPoint x="400" y="350"/>
                        </Array>
                    </mxGeometry>
                </mxCell>
                <mxCell id="36" value="" style="rounded=0;whiteSpace=wrap;html=1;dashed=1;labelBackgroundColor=none;labelBorderColor=none;fontFamily=宋体;fontSize=18;fontColor=default;" vertex="1" parent="1">
                    <mxGeometry x="20" y="40" width="760" height="290" as="geometry"/>
                </mxCell>
                <mxCell id="37" value="native端" style="text;html=1;strokeColor=none;fillColor=none;align=center;verticalAlign=middle;whiteSpace=wrap;rounded=0;dashed=1;labelBackgroundColor=none;labelBorderColor=none;fontFamily=宋体;fontSize=18;fontColor=default;" vertex="1" parent="1">
                    <mxGeometry x="20" y="40" width="100" height="30" as="geometry"/>
                </mxCell>
                <mxCell id="38" value="Android" style="rounded=1;whiteSpace=wrap;html=1;labelBackgroundColor=none;labelBorderColor=none;fontFamily=宋体;fontSize=16;fontColor=default;verticalAlign=top;arcSize=5;" vertex="1" parent="1">
                    <mxGeometry x="40" y="70" width="180" height="240" as="geometry"/>
                </mxCell>
                <mxCell id="39" value="iOS" style="rounded=1;whiteSpace=wrap;html=1;labelBackgroundColor=none;labelBorderColor=none;fontFamily=宋体;fontSize=16;fontColor=default;verticalAlign=top;arcSize=5;" vertex="1" parent="1">
                    <mxGeometry x="240" y="70" width="180" height="240" as="geometry"/>
                </mxCell>
                <mxCell id="40" value="纯血鸿蒙" style="rounded=1;whiteSpace=wrap;html=1;labelBackgroundColor=none;labelBorderColor=none;fontFamily=宋体;fontSize=16;fontColor=default;verticalAlign=top;arcSize=5;" vertex="1" parent="1">
                    <mxGeometry x="440" y="70" width="180" height="240" as="geometry"/>
                </mxCell>
                <mxCell id="48" value="小程序容器" style="rounded=1;whiteSpace=wrap;html=1;labelBackgroundColor=none;labelBorderColor=none;fontFamily=宋体;fontSize=16;fontColor=default;" vertex="1" parent="1">
                    <mxGeometry x="640" y="70" width="120" height="40" as="geometry"/>
                </mxCell>
                <mxCell id="49" value="skia" style="rounded=1;whiteSpace=wrap;html=1;labelBackgroundColor=none;labelBorderColor=none;fontFamily=宋体;fontSize=16;fontColor=default;" vertex="1" parent="1">
                    <mxGeometry x="640" y="137" width="120" height="40" as="geometry"/>
                </mxCell>
                <mxCell id="50" value="Unity/虚幻引擎" style="rounded=1;whiteSpace=wrap;html=1;labelBackgroundColor=none;labelBorderColor=none;fontFamily=宋体;fontSize=16;fontColor=default;" vertex="1" parent="1">
                    <mxGeometry x="640" y="270" width="120" height="40" as="geometry"/>
                </mxCell>
                <mxCell id="51" value="Flutter" style="rounded=1;whiteSpace=wrap;html=1;labelBackgroundColor=none;labelBorderColor=none;fontFamily=宋体;fontSize=16;fontColor=default;" vertex="1" parent="1">
                    <mxGeometry x="640" y="203" width="120" height="40" as="geometry"/>
                </mxCell>
                <mxCell id="61" value="播放器&lt;br&gt;Fragment/View" style="rounded=0;whiteSpace=wrap;html=1;labelBackgroundColor=none;labelBorderColor=none;fontFamily=宋体;fontSize=16;fontColor=default;" vertex="1" parent="1">
                    <mxGeometry x="60" y="220" width="140" height="60" as="geometry"/>
                </mxCell>
                <mxCell id="62" value="服务/通知/桌面组件/权限申请等平台原生功能" style="rounded=0;whiteSpace=wrap;html=1;labelBackgroundColor=none;labelBorderColor=none;fontFamily=宋体;fontSize=16;fontColor=default;spacing=8;" vertex="1" parent="1">
                    <mxGeometry x="60" y="120" width="140" height="80" as="geometry"/>
                </mxCell>
                <mxCell id="63" value="播放器UIView" style="rounded=0;whiteSpace=wrap;html=1;labelBackgroundColor=none;labelBorderColor=none;fontFamily=宋体;fontSize=16;fontColor=default;" vertex="1" parent="1">
                    <mxGeometry x="260" y="220" width="140" height="60" as="geometry"/>
                </mxCell>
                <mxCell id="64" value="平台原生功能" style="rounded=0;whiteSpace=wrap;html=1;labelBackgroundColor=none;labelBorderColor=none;fontFamily=宋体;fontSize=16;fontColor=default;" vertex="1" parent="1">
                    <mxGeometry x="260" y="130" width="140" height="60" as="geometry"/>
                </mxCell>
                <mxCell id="65" value="播放器&lt;br&gt;Page/Component" style="rounded=0;whiteSpace=wrap;html=1;labelBackgroundColor=none;labelBorderColor=none;fontFamily=宋体;fontSize=16;fontColor=default;" vertex="1" parent="1">
                    <mxGeometry x="460" y="220" width="140" height="60" as="geometry"/>
                </mxCell>
                <mxCell id="67" value="通知/原子服务/权限申请等平台原生功能" style="rounded=0;whiteSpace=wrap;html=1;labelBackgroundColor=none;labelBorderColor=none;fontFamily=宋体;fontSize=16;fontColor=default;spacing=8;" vertex="1" parent="1">
                    <mxGeometry x="460" y="120" width="140" height="80" as="geometry"/>
                </mxCell>
            </root>
        </mxGraphModel>
    </diagram>
</mxfile>